<?xml version="1.0" standalone="no"?>
<!DOCTYPE svg PUBLIC "-//W3C//DTD SVG 20010904//EN"
 "http://www.w3.org/TR/2001/REC-SVG-20010904/DTD/svg10.dtd">
<svg version="1.0" xmlns="http://www.w3.org/2000/svg"
 width="1000.000000pt" height="1000.000000pt" viewBox="0 0 1000.000000 1000.000000"
 preserveAspectRatio="xMidYMid meet">

<g transform="translate(0.000000,1000.000000) scale(0.100000,-0.100000)"
fill="#000000" stroke="none">
<path d="M4300 9969 c-91 -27 -126 -36 -195 -49 -33 -6 -74 -15 -91 -21 -17
-5 -45 -9 -62 -9 -17 0 -41 -4 -54 -9 -13 -5 -50 -15 -83 -21 -33 -7 -80 -18
-105 -26 -25 -7 -88 -25 -140 -38 -199 -52 -452 -146 -685 -256 -60 -28 -135
-63 -165 -77 -53 -24 -220 -117 -320 -178 -116 -71 -159 -99 -230 -150 -41
-30 -104 -75 -140 -100 -36 -25 -81 -58 -101 -73 -19 -15 -55 -42 -80 -60 -99
-75 -522 -488 -653 -638 -157 -181 -359 -474 -519 -754 -53 -92 -205 -398
-239 -480 -20 -47 -54 -129 -77 -183 -23 -54 -41 -101 -41 -104 0 -4 -11 -35
-25 -69 -41 -103 -145 -467 -167 -584 -5 -30 -14 -75 -19 -100 -19 -93 -30
-157 -38 -210 -5 -30 -20 -99 -35 -154 l-26 -99 0 -518 c0 -430 3 -528 15
-576 8 -32 20 -85 26 -118 6 -33 14 -78 19 -100 23 -110 33 -164 40 -210 24
-151 30 -180 43 -223 8 -26 25 -83 37 -127 52 -184 135 -429 193 -570 23 -56
153 -340 168 -368 5 -10 33 -62 61 -115 92 -174 293 -490 388 -610 14 -17 39
-50 55 -72 17 -23 53 -69 82 -103 29 -34 78 -93 110 -130 81 -96 425 -440 507
-507 37 -30 88 -74 115 -98 26 -23 63 -53 82 -67 36 -26 83 -60 135 -97 82
-59 298 -201 374 -246 144 -85 565 -292 593 -292 7 0 17 -4 22 -9 24 -21 281
-110 475 -165 240 -68 312 -86 415 -106 33 -6 74 -15 91 -21 17 -5 50 -9 74
-9 23 0 85 -13 137 -30 l93 -30 655 0 c546 0 661 2 690 14 48 20 151 46 183
46 31 0 174 32 273 61 36 10 73 19 83 19 9 0 45 8 79 19 34 10 127 38 207 62
132 39 331 112 437 160 23 10 45 19 48 19 18 0 385 181 465 230 25 15 81 48
125 74 114 67 169 103 394 261 35 25 83 62 107 82 24 21 64 54 90 73 61 45
564 548 629 629 28 34 64 79 80 99 17 20 39 48 48 62 20 29 46 66 122 170 55
75 111 162 217 333 64 102 259 483 278 543 7 22 18 50 26 64 58 111 181 469
234 680 12 47 28 112 37 145 9 33 20 83 25 110 5 28 13 75 19 105 5 30 14 80
18 110 11 68 27 151 42 210 8 30 13 230 16 593 4 495 3 553 -12 595 -24 67
-36 117 -45 197 -5 39 -13 93 -18 120 -25 128 -32 163 -42 200 -6 22 -15 58
-20 80 -44 193 -111 421 -166 562 -78 203 -86 222 -139 338 -18 39 -45 99 -61
135 -42 97 -132 262 -202 375 -17 28 -39 64 -48 80 -17 32 -175 267 -253 377
-26 37 -70 92 -97 122 -27 29 -65 76 -84 102 -42 59 -516 533 -589 589 -29 22
-73 58 -99 80 -26 23 -58 49 -72 58 -14 9 -43 30 -65 46 -216 162 -448 303
-702 428 -212 104 -259 125 -443 197 -168 65 -468 157 -640 196 -30 7 -91 20
-135 30 -44 10 -107 24 -140 30 -33 7 -82 16 -110 22 -27 5 -82 18 -122 29
-67 18 -111 19 -695 18 -584 -1 -627 -2 -688 -20z m758 -115 c95 -67 46 -204
-74 -204 -28 0 -44 8 -70 34 -29 29 -34 41 -34 79 0 37 5 51 31 76 25 26 38
31 78 31 26 0 56 -7 69 -16z m12 -314 c0 -3 -5 -11 -11 -17 -12 -12 -15 -122
-4 -174 22 -110 85 -256 155 -359 48 -71 163 -181 217 -209 49 -24 118 -28
166 -7 37 15 81 63 105 113 9 18 18 33 21 33 3 0 18 -21 33 -48 44 -77 94
-129 160 -161 160 -80 367 -10 579 197 32 30 62 53 67 51 6 -2 -25 -91 -69
-197 -44 -106 -82 -202 -85 -213 -2 -10 -7 -29 -10 -41 -4 -13 -11 -47 -17
-76 -8 -34 -16 -51 -24 -48 -6 3 -63 14 -125 25 -317 56 -562 71 -1198 71
-696 0 -971 -16 -1296 -74 l-132 -23 -5 31 c-8 47 -70 211 -149 389 -39 87
-68 160 -65 163 3 3 40 -27 83 -66 209 -189 380 -259 526 -216 69 20 154 93
208 178 l36 57 44 -59 c55 -72 101 -100 166 -100 186 0 424 302 480 609 12 69
14 104 7 135 l-9 41 73 0 c40 1 73 -2 73 -5z m-1660 -395 c33 -36 30 -82 -10
-117 -35 -32 -49 -34 -91 -13 -52 27 -64 91 -24 130 34 34 93 34 125 0z m3255
0 c33 -32 33 -83 0 -119 -31 -34 -74 -34 -114 0 -61 51 -26 144 54 144 25 0
44 -8 60 -25z m-2400 -10 c43 -42 31 -111 -25 -140 -56 -29 -120 14 -120 79 1
75 93 114 145 61z m1541 1 c52 -44 23 -139 -45 -148 -32 -5 -77 16 -91 41 -47
89 60 173 136 107z m-1626 -997 c69 -1 134 -6 145 -10 11 -4 41 -10 66 -13
171 -23 378 -156 443 -284 14 -28 26 -57 26 -64 -1 -7 -9 3 -20 23 -100 189
-543 341 -877 300 -192 -23 -402 -98 -508 -179 -22 -17 -53 -41 -70 -54 l-30
-23 32 38 c74 86 167 148 293 197 74 28 102 36 165 46 17 2 41 7 55 10 14 3
45 8 69 10 25 3 47 7 50 9 2 3 12 3 20 1 9 -3 72 -6 141 -7z m1753 -3 c38 -3
71 -8 75 -10 4 -2 28 -7 53 -10 58 -8 168 -45 237 -80 48 -24 152 -93 152
-101 0 -1 -28 12 -63 31 -155 82 -348 127 -542 127 -193 -1 -333 -35 -499
-121 -81 -42 -183 -133 -203 -179 -17 -41 -24 -43 -13 -3 15 51 47 94 123 166
101 97 223 152 376 170 25 3 75 9 111 13 36 4 79 6 95 5 17 -2 61 -6 98 -8z
m-2168 -353 c-53 -7 -200 -45 -209 -54 -6 -5 -16 -9 -23 -9 -22 0 -111 -61
-190 -129 -40 -35 -73 -60 -73 -57 0 9 92 119 124 149 83 75 175 106 311 105
50 -1 77 -3 60 -5z m2667 -22 c72 -28 155 -102 192 -173 l29 -53 -64 61 c-35
34 -88 78 -116 97 -56 37 -181 83 -248 91 -22 2 3 3 55 1 70 -1 110 -8 152
-24z m-3298 -78 c-67 -109 -160 -203 -245 -248 -74 -39 -93 -36 -32 5 60 40
226 204 273 269 24 33 46 58 48 56 3 -2 -17 -39 -44 -82z m3793 -105 c39 -46
99 -105 132 -133 33 -27 60 -53 60 -58 2 -15 -102 45 -145 85 -54 50 -100 111
-148 200 -45 82 -47 112 -3 41 17 -28 64 -89 104 -135z m-5076 -34 c175 -40
289 -182 289 -358 0 -138 -46 -250 -145 -351 -102 -105 -267 -201 -415 -241
-90 -25 -282 -25 -364 0 -183 54 -340 181 -410 330 -69 144 -73 277 -12 393
86 167 290 215 400 93 78 -86 74 -231 -8 -281 -42 -25 -106 -25 -140 2 -27 21
-35 62 -14 75 8 5 9 2 5 -9 -12 -32 10 -65 47 -72 122 -23 186 101 120 233
-81 162 -309 127 -405 -61 -15 -29 -23 -67 -26 -127 -6 -105 17 -181 83 -282
54 -80 112 -133 193 -177 240 -128 482 -115 782 41 128 67 189 121 232 208 89
178 62 358 -71 466 -166 136 -406 116 -498 -42 -71 -120 -14 -268 107 -281 36
-4 51 0 82 21 42 29 51 18 11 -13 -72 -57 -187 -24 -233 67 -23 46 -22 148 3
207 32 75 105 132 206 159 72 19 97 19 181 0z m6514 -28 c95 -43 139 -93 159
-179 15 -62 1 -142 -31 -185 -50 -67 -150 -87 -212 -43 -43 31 -35 35 17 10
77 -38 164 -2 203 86 33 72 18 140 -45 212 -57 65 -122 93 -216 93 -213 0
-360 -117 -385 -306 -15 -114 46 -279 129 -350 93 -80 269 -166 419 -205 113
-29 308 -24 411 11 240 82 400 293 383 505 -9 101 -25 141 -82 203 -60 66
-111 91 -184 92 -113 0 -191 -86 -191 -210 0 -57 3 -65 34 -96 30 -30 41 -34
84 -34 33 0 54 5 63 16 17 20 22 51 9 59 -6 3 -10 11 -10 18 0 7 7 5 16 -5 12
-12 15 -26 10 -51 -5 -28 -13 -38 -38 -46 -68 -24 -137 -2 -173 53 -44 67 -22
180 49 251 74 74 171 83 272 25 99 -56 153 -157 161 -300 4 -70 1 -96 -17
-150 -53 -155 -157 -270 -320 -351 -173 -86 -433 -81 -638 11 -150 69 -322
211 -372 310 -77 151 -58 343 45 457 111 124 303 166 450 99z m-1635 -38 c67
-32 316 -286 357 -364 83 -156 82 -304 -3 -402 -70 -82 -167 -110 -243 -70
-58 30 -83 65 -88 125 -5 59 18 108 66 140 50 33 67 28 27 -8 -63 -54 -67
-135 -11 -195 28 -30 38 -34 82 -34 68 0 121 39 158 115 25 51 27 63 22 131
-10 130 -92 270 -243 414 -153 145 -276 168 -387 71 -67 -59 -82 -150 -41
-237 18 -37 82 -74 128 -74 42 0 96 30 118 64 39 63 -3 159 -67 152 -28 -4
-34 9 -7 16 61 16 122 -41 122 -115 0 -136 -171 -207 -277 -114 -134 118 -75
333 109 399 62 21 111 18 178 -14z m-2503 2 c49 -22 83 -71 82 -115 -1 -20 -3
-23 -6 -10 -18 82 -64 118 -152 119 -69 0 -125 -27 -174 -84 -45 -53 -62 -114
-62 -225 0 -82 3 -97 33 -157 40 -82 111 -148 190 -179 69 -26 197 -36 271
-20 234 50 390 270 386 543 -1 63 2 82 7 62 12 -43 11 -120 -2 -199 -7 -38
-14 -81 -15 -94 -7 -51 -67 -151 -126 -209 -128 -127 -297 -178 -471 -141
-201 43 -321 213 -305 435 7 106 20 143 68 198 79 90 184 118 276 76z m1691
-13 c97 -47 151 -150 152 -284 0 -100 -1 -106 -29 -181 -33 -88 -94 -153 -189
-199 -76 -38 -76 -38 -201 -38 -124 0 -127 0 -203 37 -159 75 -249 199 -278
384 -13 81 -15 226 -4 247 6 10 9 -18 9 -76 1 -112 14 -199 37 -241 7 -12 13
-27 14 -35 4 -24 94 -149 126 -176 41 -35 146 -83 210 -96 172 -37 367 43 436
178 78 153 61 313 -45 415 -70 68 -143 84 -219 48 -48 -24 -75 -59 -79 -102
-2 -28 -14 -51 -16 -32 -10 70 4 110 48 139 72 48 150 51 231 12z m-908 -78
c0 -15 -5 -40 -11 -56 -8 -22 -12 -25 -19 -13 -16 30 -21 77 -10 106 11 28 12
28 26 10 8 -11 14 -32 14 -47z m-1550 -59 c0 -77 -78 -150 -162 -150 -94 0
-158 60 -158 147 0 33 5 55 15 63 13 11 13 8 4 -19 -30 -87 80 -191 178 -167
35 9 90 65 99 101 4 16 2 47 -4 69 l-10 41 19 -24 c11 -14 19 -39 19 -61z
m2305 -90 c0 -18 -6 -26 -23 -28 -27 -4 -40 22 -22 44 19 22 45 13 45 -16z
m-1520 10 c4 -6 3 -10 -2 -9 -18 3 -33 -2 -33 -11 0 -5 10 -10 23 -10 20 -1
21 -1 3 -11 -22 -14 -52 11 -43 35 7 18 42 22 52 6z m3203 -295 c165 -157 363
-278 572 -348 121 -41 223 -62 406 -82 l129 -14 -225 3 c-211 3 -231 5 -315
30 -194 58 -372 172 -550 351 -67 66 -128 136 -137 156 -10 19 -26 43 -38 54
-11 10 -20 23 -20 29 0 6 21 -14 47 -44 25 -30 84 -91 131 -135z m-4765 143
c-6 -7 -27 -35 -48 -63 -131 -176 -367 -360 -571 -445 -146 -60 -210 -72 -419
-76 -162 -2 -177 -1 -100 7 221 22 389 71 590 169 201 99 402 247 508 374 21
25 41 46 44 46 3 0 1 -6 -4 -12z m342 -170 c46 -21 68 -70 63 -143 -3 -53 -9
-71 -34 -102 -59 -73 -170 -104 -245 -70 -39 18 -99 69 -99 84 0 7 -4 13 -8
13 -16 0 -42 96 -41 150 1 51 2 53 9 20 5 -19 10 -48 13 -65 14 -103 103 -180
208 -180 46 0 63 5 93 28 47 37 67 67 73 116 10 74 -37 140 -101 142 -26 0
-28 2 -11 9 28 12 50 12 80 -2z m-1115 -927 c96 0 197 4 223 8 30 5 50 4 54
-2 4 -6 9 -57 11 -114 4 -85 2 -103 -10 -103 -8 0 -19 18 -25 43 -22 80 -80
127 -158 127 l-35 0 0 -299 c0 -227 3 -301 13 -308 6 -6 29 -16 50 -23 20 -6
35 -16 32 -21 -8 -12 -315 -12 -315 0 0 5 11 11 23 15 13 3 35 15 50 26 25 20
26 23 25 143 0 67 1 198 2 290 1 93 -1 171 -4 174 -3 3 -27 2 -53 -2 -58 -9
-112 -59 -131 -123 -10 -31 -18 -42 -33 -42 -21 0 -21 -5 -3 176 l5 50 52 -7
c29 -4 131 -8 227 -8z m-1064 -294 c56 -162 108 -308 115 -323 8 -16 28 -38
46 -50 18 -12 29 -24 26 -28 -9 -9 -283 -7 -283 2 0 5 16 16 35 25 19 9 35 24
35 33 0 10 -12 57 -27 106 l-26 88 -108 0 c-124 0 -115 6 -144 -102 -22 -85
-16 -113 30 -128 62 -21 37 -30 -80 -30 -120 0 -138 8 -84 35 39 21 54 54 160
368 l84 248 -22 19 c-13 10 -23 22 -23 27 0 4 37 7 82 7 l83 -2 101 -295z
m528 294 c3 -5 -8 -14 -25 -21 -58 -25 -59 -28 -59 -336 l0 -282 59 -7 c33 -4
74 -4 91 0 44 10 105 72 120 123 14 44 40 58 40 20 0 -24 -16 -136 -25 -175
l-5 -23 -240 0 c-237 0 -289 7 -221 31 17 6 36 19 41 29 6 11 10 134 10 296 0
271 0 278 -22 301 -12 13 -27 23 -35 23 -7 0 -13 4 -13 10 0 5 56 11 133 13
72 1 135 4 139 5 4 1 9 -2 12 -7z m2938 -103 c4 -76 2 -98 -8 -98 -7 0 -18 16
-24 36 -18 52 -71 101 -132 119 -69 20 -134 20 -142 -1 -3 -9 -6 -72 -6 -140
l0 -124 58 0 c65 0 94 15 117 61 9 16 19 29 23 29 5 0 8 -52 8 -115 -1 -63 -4
-115 -8 -115 -4 0 -14 13 -22 28 -25 49 -58 64 -141 66 l-30 1 -3 -115 c-4
-161 0 -179 49 -198 21 -8 39 -19 39 -24 0 -4 -68 -8 -151 -8 -116 0 -150 3
-147 13 3 6 14 13 26 15 12 2 31 15 42 29 19 24 20 40 20 304 l0 278 -26 20
c-15 12 -33 21 -40 21 -8 0 -14 4 -14 10 0 10 489 20 501 10 4 -3 9 -49 11
-102z m1218 78 c63 -41 82 -79 78 -154 -4 -57 -7 -65 -43 -102 -22 -22 -53
-45 -70 -51 l-31 -12 46 -71 c26 -39 58 -91 71 -116 56 -104 89 -139 132 -140
10 0 17 -6 15 -12 -3 -9 -32 -14 -86 -16 -77 -3 -82 -1 -114 27 -23 19 -55 74
-97 160 -60 126 -80 151 -123 158 -16 3 -18 -9 -18 -121 0 -141 7 -170 50
-194 16 -9 30 -20 30 -24 0 -5 -65 -8 -145 -8 -150 0 -174 8 -110 34 21 9 39
26 45 42 6 16 9 132 8 297 l-3 272 -45 25 -45 25 105 6 c58 4 151 5 207 4 92
-1 106 -4 143 -29z m1270 5 c-63 -41 -60 -26 -60 -329 0 -307 -2 -296 64 -322
16 -6 27 -12 25 -14 -2 -2 -70 -6 -151 -9 -126 -6 -148 -4 -148 8 0 8 9 15 20
15 11 0 29 9 40 20 19 19 20 33 20 304 l0 285 -26 20 c-15 12 -34 21 -42 21
-10 0 -13 3 -6 10 9 9 260 19 278 11 5 -3 -1 -12 -14 -20z m675 17 c1 -2 5
-49 8 -105 6 -123 -4 -132 -48 -41 -35 73 -66 98 -129 105 l-46 6 0 -290 c0
-274 1 -292 20 -316 11 -13 31 -28 45 -31 14 -4 25 -11 25 -16 0 -6 -60 -10
-155 -10 -85 0 -155 4 -155 8 0 5 18 17 40 27 24 11 42 27 45 39 3 12 6 148 7
304 l3 282 -33 0 c-69 0 -137 -52 -157 -120 -9 -32 -25 -51 -35 -45 -8 5 -3
173 5 200 2 9 552 12 560 3z m370 -4 c-5 -2 -25 -13 -43 -24 l-33 -20 3 -248
c3 -274 5 -282 71 -323 25 -16 45 -19 94 -17 79 5 117 36 132 110 14 61 14
418 1 452 -5 14 -25 36 -44 48 -20 13 -36 25 -36 28 0 3 49 4 110 2 60 -2 110
-7 110 -13 0 -5 -8 -9 -18 -9 -10 0 -28 -10 -39 -22 -20 -22 -21 -36 -25 -269
l-3 -246 -30 -43 c-16 -23 -46 -54 -66 -67 -85 -56 -236 -52 -305 9 -66 58
-68 66 -74 345 l-5 251 -28 26 c-15 14 -33 27 -40 28 -7 1 51 5 128 8 129 5
166 3 140 -6z m882 -6 c47 -26 85 -81 91 -133 9 -86 -45 -171 -121 -190 -25
-7 -26 -9 -14 -24 8 -9 44 -68 81 -131 72 -123 119 -180 148 -180 10 0 18 -7
18 -15 0 -12 -15 -15 -76 -15 -117 0 -130 11 -215 187 -38 79 -75 145 -82 148
-6 2 -23 6 -37 9 l-25 5 5 -142 c3 -78 9 -148 13 -155 5 -7 20 -17 33 -22 55
-21 21 -30 -116 -30 -77 0 -140 4 -140 9 0 5 14 14 31 21 17 7 35 24 40 37 5
13 9 147 9 298 l0 274 -26 20 c-14 11 -34 23 -45 26 -48 15 -4 20 189 20 178
0 211 -2 239 -17z m733 -83 c0 -58 -4 -105 -8 -105 -4 0 -14 16 -21 35 -29 80
-101 125 -203 125 l-48 0 0 -135 0 -135 46 0 c59 0 110 24 126 61 25 56 39 29
27 -51 -4 -30 -8 -82 -8 -115 l-1 -60 -16 31 c-26 53 -57 75 -118 83 l-56 8 0
-150 0 -150 80 6 c50 4 94 14 120 27 39 20 109 102 110 128 0 6 7 12 16 12 13
0 15 -8 10 -47 -3 -27 -8 -76 -12 -111 l-6 -62 -262 2 c-167 2 -260 7 -259 13
1 6 10 12 20 14 10 1 26 10 36 19 15 14 17 41 17 303 l0 288 -26 20 c-15 12
-33 21 -40 21 -8 0 -14 4 -14 10 0 6 92 11 243 13 133 1 243 3 245 5 1 1 2
-45 2 -103z m-6783 -160 c129 -392 130 -394 169 -413 19 -8 34 -19 34 -24 0
-4 -65 -8 -145 -8 -80 0 -145 4 -145 8 0 4 15 14 34 20 56 21 57 27 23 135
l-31 97 -111 0 -112 0 -22 -72 c-33 -112 -26 -144 37 -162 50 -16 16 -26 -88
-26 -110 0 -132 8 -87 31 23 13 56 46 58 61 2 12 6 28 9 31 1 1 3 10 5 21 2
10 40 131 85 269 46 138 78 253 73 254 -6 2 -19 10 -29 18 -17 13 -10 15 71
12 l90 -2 82 -250z m703 248 c-1 -5 -15 -17 -33 -28 l-32 -20 -5 -260 c-4
-222 -8 -265 -22 -292 -33 -60 -114 -103 -194 -103 -39 0 -128 45 -154 77
l-20 25 53 54 52 53 7 -56 c10 -76 29 -103 73 -103 22 0 43 8 55 20 20 20 20
31 18 302 l-3 283 -32 20 c-18 11 -32 23 -33 28 0 4 61 7 135 7 74 0 135 -3
135 -7z m1276 -6 c-11 -7 -30 -22 -43 -34 -23 -22 -23 -26 -23 -233 0 -120 5
-230 11 -255 16 -62 56 -97 118 -103 71 -6 109 12 132 62 16 36 19 69 19 268
l0 226 -26 31 c-14 17 -32 31 -40 31 -8 0 -14 5 -14 10 0 6 43 10 110 10 61 0
110 -2 110 -5 0 -2 -15 -12 -32 -21 -18 -9 -35 -19 -38 -21 -3 -3 -7 -116 -10
-251 -4 -216 -7 -251 -24 -282 -47 -89 -109 -125 -216 -125 -81 0 -134 20
-177 67 -42 45 -47 73 -52 338 l-6 254 -40 23 -40 23 150 -1 c120 0 146 -3
131 -12z m1350 -69 c32 -46 62 -87 66 -93 5 -5 34 -46 65 -90 32 -44 61 -84
66 -90 4 -5 28 -37 53 -70 25 -33 48 -62 51 -65 3 -3 3 90 1 207 -4 231 -4
230 -67 263 l-36 19 118 1 c64 0 117 -3 117 -7 -1 -5 -15 -17 -32 -28 -18 -11
-35 -31 -39 -45 -4 -14 -7 -157 -8 -317 l-1 -293 -37 0 c-42 0 -29 -16 -204
240 -47 69 -113 165 -147 214 l-62 89 0 -245 c0 -265 -1 -262 54 -276 56 -15
22 -27 -84 -30 -91 -2 -110 0 -110 12 0 8 13 17 30 21 17 4 35 15 41 26 6 13
9 116 7 296 l-3 275 -39 34 -39 34 90 0 90 0 59 -82z m-1286 -947 c0 -23 58
-76 105 -96 19 -7 35 -20 35 -28 0 -25 -60 -109 -74 -104 -20 8 -28 -4 -15
-20 6 -7 8 -13 5 -13 -4 0 -4 -6 1 -12 4 -7 8 -17 10 -23 1 -5 4 -20 7 -32 24
-96 30 -138 30 -228 1 -64 -4 -89 -23 -128 -35 -73 -48 -78 -218 -84 -136 -5
-153 -4 -196 15 -31 14 -54 33 -68 57 l-21 36 -17 -33 c-32 -64 -92 -85 -298
-103 -121 -11 -191 30 -199 117 -5 45 30 148 52 155 6 2 17 -17 23 -42 17 -67
33 -72 194 -57 73 7 152 17 175 24 42 10 44 12 38 41 -3 16 -27 71 -52 122
l-46 92 39 62 c21 33 40 61 43 61 8 0 94 -220 115 -292 27 -93 40 -99 214 -96
l146 3 3 39 c2 22 -6 114 -18 205 -21 160 -23 167 -51 189 -38 31 -37 52 8
129 38 65 53 77 53 44z m3445 -116 c36 -20 65 -40 65 -46 0 -12 -50 -92 -64
-101 -5 -4 -14 -4 -18 -2 -13 8 -10 -15 17 -120 42 -165 26 -312 -38 -360 -26
-19 -42 -21 -190 -21 -176 0 -216 10 -239 60 l-10 23 -30 -34 c-39 -44 -75
-53 -248 -61 -163 -7 -200 0 -255 49 -52 45 -72 113 -90 299 -10 111 -21 175
-35 206 -13 31 -17 50 -11 61 13 23 119 127 125 121 2 -2 11 -111 19 -242 23
-344 22 -344 272 -333 189 8 193 10 233 82 36 65 77 112 88 101 4 -4 2 -31 -5
-61 -23 -102 6 -118 209 -114 l145 3 -2 30 c-1 17 -12 101 -25 187 -20 142
-25 158 -46 169 -43 24 -35 73 26 167 l15 24 14 -25 c7 -14 42 -41 78 -62z
m-3908 -20 c4 -3 -72 -104 -78 -105 -13 0 -115 65 -117 75 -1 6 15 33 35 61
l38 52 60 -41 c33 -22 61 -41 62 -42z m898 63 c16 -69 33 -155 34 -168 0 -8 3
-35 6 -60 20 -173 23 -339 5 -386 -14 -35 -58 -94 -71 -94 -5 0 -9 20 -9 44 0
54 -26 309 -45 435 -15 102 -10 128 37 210 26 47 35 50 43 19z m3319 -46 c33
-144 48 -272 50 -407 1 -135 0 -141 -25 -180 -15 -22 -34 -46 -43 -54 -21 -18
-23 -11 -31 114 -3 55 -15 169 -26 253 -10 84 -19 165 -19 179 0 29 58 163 71
163 4 0 14 -31 23 -68z m-844 -52 c4 0 24 18 44 40 20 22 38 40 41 40 13 0
115 -79 115 -89 0 -4 -10 -17 -23 -31 -13 -14 -32 -38 -41 -53 -10 -15 -23
-27 -28 -27 -9 0 -70 43 -97 69 -16 14 -30 2 -71 -56 l-15 -22 -62 45 -63 46
46 59 47 59 50 -40 c27 -22 53 -40 57 -40z m-4431 8 c115 -63 221 -136 272
-189 104 -106 132 -251 73 -375 -31 -66 -78 -63 -283 20 -61 24 -111 41 -111
37 0 -9 -97 -54 -155 -73 -25 -8 -93 -13 -176 -13 -133 0 -136 0 -172 28 -20
15 -37 35 -37 43 0 22 -16 17 -28 -10 -26 -57 -86 -75 -260 -77 l-124 -1 21
-22 c30 -32 27 -78 -8 -119 -32 -35 -111 -83 -151 -90 -14 -3 -45 -11 -70 -18
-25 -7 -52 -14 -60 -15 -21 -5 -221 -24 -245 -24 -13 0 -2 -13 37 -42 l57 -41
-40 -49 c-24 -28 -46 -45 -52 -41 -12 6 -99 64 -106 69 -2 2 15 24 38 50 22
26 41 51 41 55 0 5 -20 9 -44 9 -71 0 -167 35 -205 74 -60 62 -63 141 -9 253
38 78 142 193 159 176 9 -9 2 -25 -29 -66 -94 -122 -90 -216 13 -267 47 -23
60 -25 195 -24 103 0 181 7 270 23 68 12 127 25 130 27 22 23 -132 69 -253 76
l-39 3 56 76 56 77 247 6 c232 7 343 13 348 19 2 1 17 30 34 64 60 121 129
170 94 67 -37 -108 -1 -141 150 -139 51 1 109 5 129 9 l38 8 -20 25 c-11 14
-20 40 -20 57 0 44 45 130 95 183 23 23 36 43 30 43 -6 0 -20 6 -30 14 -18 13
-18 16 -5 42 21 41 62 104 68 104 2 0 39 -19 81 -42z m2951 -119 c80 -5 231
-13 337 -18 106 -4 195 -10 199 -13 11 -11 -75 -118 -99 -122 -12 -2 -83 -12
-157 -21 -245 -31 -345 -68 -425 -158 -49 -53 -85 -138 -85 -195 0 -45 29
-109 61 -139 36 -33 125 -70 211 -87 89 -18 344 -21 503 -6 55 6 103 6 108 1
11 -11 -91 -78 -175 -113 -99 -42 -187 -58 -319 -58 -199 0 -339 51 -420 153
-48 61 -62 112 -57 208 7 123 87 271 206 382 l51 47 -72 -1 c-40 0 -108 -6
-152 -13 -44 -8 -82 -12 -84 -10 -8 7 97 130 129 152 38 25 44 25 240 11z
m284 -440 c7 -6 -31 -80 -61 -119 -6 -6 -133 63 -133 73 0 4 16 32 36 62 l37
55 56 -32 c31 -17 60 -35 65 -39z m-3799 -239 c0 -5 -17 -30 -38 -55 -42 -50
-51 -50 -106 1 -14 13 -31 24 -38 24 -19 0 -17 6 28 65 l40 53 57 -39 c31 -22
57 -44 57 -49z m-656 -166 c4 -3 -15 -29 -52 -73 l-27 -33 -43 26 c-73 42 -75
50 -31 99 l39 44 55 -30 c30 -17 57 -31 59 -33z m745 -709 c5 -202 4 -223 -13
-260 l-19 -40 -2 150 c-1 83 -5 191 -10 240 -7 83 -6 92 13 112 11 13 21 22
23 20 1 -1 5 -101 8 -222z m2955 -53 c1 -157 -2 -199 -15 -223 -8 -17 -17 -29
-19 -27 -2 2 -6 111 -9 243 -4 211 -2 241 12 261 17 22 17 22 24 -20 3 -22 7
-128 7 -234z m-4389 60 c4 -127 10 -205 18 -219 26 -46 125 -52 193 -11 l33
20 -59 57 c-96 91 -115 117 -115 162 0 25 7 46 19 58 33 33 267 138 279 126 3
-3 2 -17 -4 -31 -7 -21 -32 -35 -131 -77 -68 -28 -123 -56 -123 -61 0 -6 57
-68 128 -137 107 -107 134 -128 167 -135 50 -9 143 10 168 35 18 18 18 19 -2
59 -12 23 -21 49 -21 59 1 18 22 53 32 53 11 0 32 -97 31 -144 -1 -47 -4 -54
-43 -88 -73 -65 -169 -65 -253 0 l-50 40 -36 -38 c-65 -69 -181 -79 -233 -21
-32 36 -34 46 -46 280 -10 183 -10 184 11 202 12 9 24 15 27 12 3 -2 7 -93 10
-201z m2102 185 l27 -22 -25 -29 -26 -29 -25 25 c-25 26 -25 26 -7 52 23 31
22 31 56 3z m665 -21 c-2 -5 -11 -14 -20 -20 -12 -8 -21 -5 -36 9 -20 17 -20
20 -5 36 15 17 18 17 40 1 13 -9 22 -21 21 -26z m1469 -8 c17 -52 17 -66 1
-60 -5 1 -7 -71 -5 -160 3 -149 1 -166 -18 -198 -27 -47 -76 -63 -180 -58 -60
3 -91 10 -117 26 l-37 21 -45 -20 c-35 -15 -70 -20 -160 -22 l-115 -2 0 -29
c0 -58 -89 -136 -155 -136 -23 0 -105 34 -105 44 0 2 22 3 49 3 54 0 97 21
143 70 42 44 42 73 1 132 l-35 50 20 32 20 32 31 -61 c21 -41 38 -63 54 -67
36 -9 211 1 232 12 18 10 14 17 -49 77 l-68 65 25 25 c43 43 173 48 226 8 22
-16 26 -27 25 -66 0 -37 -6 -52 -29 -76 -25 -26 -27 -32 -15 -40 20 -13 202
-13 234 0 25 9 26 12 26 104 0 53 -5 141 -11 196 -12 99 -12 101 11 125 13 14
25 25 26 25 1 0 10 -24 20 -52z m1100 -157 c11 -245 14 -251 95 -251 64 0 92
14 118 61 24 42 36 51 26 18 -13 -41 2 -67 43 -74 38 -6 97 8 89 22 -2 5 3 26
13 48 l17 40 15 -50 c17 -57 44 -74 91 -56 32 12 34 33 8 82 l-20 37 25 23
c13 12 25 21 27 18 15 -20 27 -68 27 -103 0 -102 -115 -178 -169 -111 -15 21
-21 23 -28 12 -23 -40 -90 -48 -140 -17 -33 20 -33 20 -65 0 -23 -14 -51 -20
-89 -20 -47 0 -60 4 -82 26 -33 33 -35 45 -47 257 -5 97 -12 182 -16 188 -6
10 32 59 46 59 4 0 11 -94 16 -209z m1945 83 c0 -60 3 -151 8 -202 10 -119 21
-132 108 -132 l63 0 0 103 c0 56 -7 144 -15 196 -13 91 -13 95 6 123 l20 28
30 -57 c34 -68 33 -63 14 -63 -13 0 -14 -20 -9 -153 6 -131 5 -157 -10 -185
-21 -41 -63 -62 -126 -62 -51 0 -87 21 -103 61 -3 9 -8 10 -14 4 -52 -64 -125
-84 -145 -40 l-12 26 -24 -26 c-19 -21 -30 -25 -51 -20 -38 9 -73 34 -78 56
-7 25 -20 24 -28 -1 -9 -28 -53 -60 -84 -60 -15 0 -51 6 -81 14 -48 13 -58 12
-84 -1 -34 -17 -97 -22 -138 -10 -26 7 -28 5 -28 -20 0 -16 -8 -40 -18 -55
-52 -78 -148 -103 -230 -59 -30 16 -29 33 2 21 63 -24 206 62 206 123 0 28
-37 108 -52 115 -13 6 -8 26 13 51 23 28 20 30 52 -35 28 -55 71 -84 124 -84
46 0 59 13 39 41 -48 69 25 226 99 211 31 -6 75 -56 75 -86 0 -32 -19 -86 -42
-119 -24 -34 -14 -39 63 -35 l53 3 33 60 c78 140 153 140 197 0 9 -31 24 -59
32 -62 21 -8 62 5 84 27 18 18 19 31 15 147 -3 70 -7 154 -10 185 -4 46 -2 62
12 76 10 11 22 16 26 12 5 -4 8 -57 8 -116z m-4619 71 c10 -21 9 -29 -5 -43
-16 -15 -18 -15 -37 4 -18 18 -19 21 -4 42 20 29 32 28 46 -3z m4087 4 l25
-20 -27 -27 -26 -26 -26 24 -25 24 22 23 c26 28 27 28 57 2z m-986 -93 c-10
-12 -18 -22 -19 -24 0 -1 -13 7 -28 19 l-27 21 22 24 23 24 23 -22 c22 -21 22
-22 6 -42z m-3042 -94 c1 -114 13 -183 34 -198 24 -18 131 -18 165 -1 15 7 37
37 55 75 17 35 33 60 37 57 3 -4 4 -31 1 -61 -8 -76 1 -84 99 -84 44 0 88 5
99 10 27 15 25 69 -5 112 l-24 36 23 28 24 29 18 -40 c25 -57 24 -155 -3 -192
-30 -42 -80 -63 -147 -63 -48 0 -62 4 -82 25 -14 13 -25 31 -25 40 0 22 -7 19
-38 -15 -22 -25 -40 -33 -93 -42 -59 -9 -71 -8 -105 8 -23 11 -45 32 -54 50
l-15 31 -40 -18 c-69 -32 -125 -20 -125 27 0 37 15 61 90 140 37 39 73 85 81
102 7 17 17 28 21 26 4 -3 8 -40 9 -82z m-581 50 c46 -46 62 -135 39 -213 -10
-31 -9 -44 5 -72 20 -43 20 -68 2 -111 -12 -30 -64 -77 -91 -83 -5 -1 -28 -7
-50 -12 -53 -14 -156 -14 -192 0 -42 15 -72 48 -79 85 -8 44 13 138 37 166
l20 23 -12 -25 c-15 -30 -13 -124 3 -150 23 -37 79 -52 165 -47 123 8 185 44
168 97 -6 18 -16 20 -81 20 -80 0 -87 6 -58 48 12 18 25 22 63 22 l48 0 13 45
c14 51 9 65 -15 41 -24 -23 -61 -30 -94 -16 -65 26 -66 103 -2 170 45 48 72
50 111 12z m3667 6 c21 -20 22 -23 6 -40 -21 -23 -28 -23 -53 4 -18 20 -19 23
-3 40 20 23 22 23 50 -4z m-889 -24 c1 0 -6 -8 -16 -17 -17 -15 -20 -15 -41
-1 -21 15 -21 17 -5 35 16 18 18 18 38 2 12 -10 22 -18 24 -19z m802 15 c9
-15 8 -24 -1 -37 -8 -9 -14 -19 -15 -20 -2 -2 -14 4 -27 14 -23 18 -23 20 -8
41 20 28 37 29 51 2z m-720 -5 c11 -12 10 -18 -3 -32 -16 -15 -18 -15 -34 0
-13 14 -14 20 -3 32 7 9 16 16 20 16 4 0 13 -7 20 -16z m176 -72 c0 -4 5 -16
10 -27 16 -36 11 -138 -9 -168 -39 -59 -178 -95 -301 -78 -119 17 -176 67
-176 156 0 101 26 159 29 63 2 -92 19 -116 96 -140 54 -17 239 -15 289 3 58
21 64 38 37 103 -21 52 -22 56 -5 81 15 23 27 26 30 7z m-3922 -42 c43 -52 62
-164 31 -190 -20 -17 -120 -9 -164 13 -33 17 -34 17 -68 -13 -35 -31 -78 -39
-114 -20 -16 9 -19 7 -19 -15 0 -40 -25 -80 -72 -114 -57 -42 -95 -48 -151
-23 -49 22 -77 50 -36 37 42 -14 90 -6 134 20 92 54 108 111 50 184 -36 45
-36 50 -2 95 14 19 16 17 42 -35 40 -80 51 -89 105 -89 53 0 77 20 124 102 47
83 96 100 140 48z m4903 15 c62 -44 68 -179 13 -292 -28 -56 -38 -68 -78 -85
-38 -17 -51 -19 -83 -9 -20 6 -47 19 -59 29 -23 18 -22 18 41 18 77 -1 124 23
157 82 31 55 29 61 -18 55 -50 -7 -94 11 -109 43 -14 31 -14 61 -1 69 6 4 8
11 4 16 -8 14 70 89 93 89 10 0 28 -7 40 -15z m-6323 -11 c9 -3 16 -12 16 -19
0 -24 -31 -39 -76 -36 -33 2 -46 -2 -50 -13 -10 -26 14 -44 74 -57 31 -7 58
-13 60 -15 2 -1 -1 -12 -8 -23 -8 -17 -20 -21 -56 -21 -24 0 -60 -6 -79 -14
-54 -23 -64 3 -12 34 21 13 26 20 15 20 -21 0 -33 39 -24 76 15 58 82 90 140
68z m662 -320 c23 -15 26 -15 43 0 23 21 34 20 56 -4 17 -19 17 -21 -1 -42
-10 -13 -20 -25 -21 -27 -1 -2 -14 4 -29 13 -23 16 -27 16 -43 2 -23 -21 -26
-20 -50 5 -19 21 -19 23 -3 45 20 28 17 28 48 8z m2734 -13 c12 -8 12 -13 -4
-30 -23 -25 -34 -26 -57 -5 -17 15 -17 18 -1 39 17 23 22 23 62 -4z m-287 -33
c-19 -21 -49 -24 -56 -5 -2 6 3 22 11 34 13 22 15 22 37 5 21 -16 22 -18 8
-34z m103 33 c22 -18 23 -19 5 -35 -22 -20 -30 -20 -53 1 -17 15 -17 17 -2 35
21 22 20 22 50 -1z m-1056 -131 c16 22 18 22 43 5 32 -21 33 -26 8 -56 l-19
-24 -26 24 -26 25 -16 -22 c-18 -27 -23 -27 -52 -2 -23 19 -23 20 -5 44 l18
24 29 -21 29 -20 17 23z m-154 -644 c81 -22 176 -66 239 -111 92 -66 206 -194
244 -275 l12 -25 -18 25 c-67 94 -220 222 -345 289 -85 46 -269 100 -342 102
-45 1 -48 2 -21 10 38 10 168 2 231 -15z m3911 3 c-38 -4 -101 -17 -140 -29
-40 -12 -80 -24 -89 -25 -10 -2 -57 -24 -105 -49 -128 -66 -255 -171 -341
-282 l-23 -29 18 30 c56 98 195 242 281 292 26 15 50 32 54 38 4 5 8 7 8 3 0
-4 20 2 44 12 80 36 148 49 256 48 104 -1 104 -1 37 -9z m-2756 -32 c77 -39
142 -98 200 -180 56 -80 67 -113 14 -45 -48 63 -158 161 -218 194 -67 36 -175
45 -245 19 -99 -37 -165 -134 -179 -265 -11 -110 47 -223 141 -272 127 -67
296 15 296 143 0 121 -141 179 -185 76 -12 -28 -14 -29 -15 -9 0 36 43 72 87
72 122 0 179 -162 90 -259 -62 -68 -198 -82 -302 -32 -68 32 -81 46 -113 114
-34 73 -39 160 -14 243 52 171 137 236 302 232 70 -3 95 -8 141 -31z m1704 6
c100 -53 165 -175 165 -314 0 -173 -100 -282 -259 -281 -103 0 -171 42 -206
124 -20 48 -19 74 4 125 34 73 113 95 170 47 22 -18 31 -34 30 -52 -1 -22 -2
-23 -6 -6 -7 37 -49 68 -90 67 -28 -1 -44 -9 -65 -32 -52 -59 -49 -128 9 -192
67 -74 150 -88 241 -43 93 46 144 136 144 254 0 136 -66 246 -172 284 -75 27
-178 19 -251 -20 -51 -28 -202 -166 -248 -229 -17 -23 -16 -18 6 24 55 106
173 214 276 252 70 26 194 22 252 -8z m-3040 -26 c11 -3 21 -6 23 -7 1 -2 5
-3 10 -4 39 -6 147 -75 191 -121 73 -77 104 -149 109 -253 5 -98 -12 -154 -67
-215 -137 -152 -381 -89 -381 98 0 111 103 185 171 124 l24 -21 -27 16 c-39
23 -72 20 -107 -10 -38 -31 -53 -85 -41 -138 12 -53 38 -86 91 -113 80 -41
166 -23 240 51 60 59 74 98 74 201 0 109 -22 162 -101 240 -62 61 -140 101
-239 122 -63 14 -85 14 -144 4 -141 -25 -267 -112 -312 -214 -17 -39 -24 -76
-27 -147 -3 -89 -2 -99 25 -150 48 -93 117 -122 184 -77 43 28 69 80 69 135 0
95 -110 142 -133 57 -4 -12 -5 -8 -4 10 3 42 44 62 85 41 41 -21 52 -38 61
-94 6 -40 4 -58 -15 -100 -28 -65 -66 -86 -138 -79 -44 4 -55 10 -87 45 -62
71 -83 176 -58 294 32 152 143 262 304 304 46 12 172 12 220 1z m4371 -15
c165 -65 265 -234 252 -424 -9 -123 -75 -208 -162 -208 -72 0 -129 49 -147
127 -9 43 4 108 28 136 20 21 76 22 97 1 17 -16 22 -64 7 -64 -5 0 -8 12 -8
26 0 47 -37 56 -80 20 -25 -21 -28 -31 -29 -86 -1 -55 2 -66 28 -96 78 -89
185 -57 233 70 27 69 17 193 -20 269 -39 79 -114 153 -194 190 -56 26 -76 31
-145 30 -101 0 -136 -7 -211 -42 -248 -117 -333 -377 -175 -531 58 -56 103
-74 171 -68 140 14 217 173 129 268 -30 32 -65 39 -103 18 -20 -10 -21 -10 -8
5 15 19 72 23 101 7 10 -5 28 -26 40 -45 32 -51 26 -148 -12 -197 -48 -63
-148 -92 -234 -69 -57 15 -127 79 -153 141 -23 53 -30 163 -15 226 13 58 68
146 121 194 44 40 144 101 176 106 4 1 8 2 10 4 1 1 12 3 24 4 13 2 25 5 28 8
3 3 46 5 95 6 74 0 100 -4 156 -26z m-1996 -208 c14 -9 17 -13 7 -10 -50 16
-67 17 -105 7 -80 -22 -154 -123 -172 -236 -17 -107 21 -200 112 -265 80 -58
187 -31 217 56 27 77 -10 137 -82 132 -38 -3 -44 -7 -62 -43 -13 -27 -21 -35
-23 -23 -5 23 27 68 55 79 43 16 74 10 104 -20 24 -24 29 -38 29 -76 0 -99
-55 -155 -152 -155 -133 0 -241 141 -225 295 10 101 92 226 170 260 42 19 96
18 127 -1z m-521 -8 c46 -24 107 -100 131 -162 48 -127 6 -285 -94 -352 -91
-60 -202 -38 -247 51 -29 56 -21 112 21 150 16 15 41 27 54 27 32 0 86 -46 86
-73 0 -17 -4 -15 -18 13 -15 30 -22 35 -58 38 -35 3 -45 -1 -63 -24 -40 -51
-20 -137 42 -174 52 -32 117 -27 168 13 119 91 143 269 54 404 -55 83 -134
111 -220 79 -13 -5 -11 -2 5 8 32 19 103 20 139 2z m-997 -388 c40 -31 88 -93
137 -175 37 -65 27 -71 -13 -8 -15 25 -65 87 -109 137 -81 92 -83 99 -15 46z
m2328 -73 c-45 -53 -90 -111 -101 -128 -10 -18 -19 -26 -19 -18 0 28 92 161
142 205 29 25 54 44 56 42 2 -2 -33 -48 -78 -101z m-1947 -116 c49 -23 76 -29
132 -30 57 0 65 -2 45 -10 -23 -10 -137 -2 -152 11 -2 1 -11 3 -20 5 -32 6
-87 46 -128 92 -56 64 -50 69 11 10 28 -27 78 -62 112 -78z m1740 87 c-39 -47
-70 -70 -135 -100 -63 -29 -152 -39 -194 -21 -26 11 -22 12 36 8 85 -6 152 19
245 91 39 30 71 55 73 55 2 1 -9 -14 -25 -33z m-1000 -160 c-33 -55 -112 -117
-195 -154 -139 -61 -304 -52 -453 26 -81 42 -77 50 7 16 121 -48 230 -62 334
-40 95 19 205 71 265 125 48 44 54 48 42 27z m301 -106 c66 -32 176 -60 241
-60 72 0 178 29 260 69 64 32 74 35 50 15 -43 -35 -161 -90 -223 -103 -179
-37 -395 37 -466 160 l-20 34 49 -43 c26 -23 76 -56 109 -72z m-207 -133 c25
-73 24 -208 -3 -261 -10 -21 -23 -39 -29 -38 -16 0 -44 88 -49 152 -6 84 29
220 53 206 5 -4 18 -30 28 -59z"/>
<path d="M4967 8970 c-26 -56 -95 -129 -161 -170 -31 -19 -56 -38 -56 -41 0
-3 25 -13 56 -23 71 -22 97 -48 118 -117 29 -89 27 -86 36 -64 5 11 9 33 9 49
1 45 10 26 19 -40 l8 -59 23 72 c38 116 49 129 138 156 l77 23 -57 38 c-63 42
-126 108 -164 174 -14 23 -26 42 -26 42 -1 0 -10 -18 -20 -40z"/>
<path d="M3618 8582 c-29 -17 -36 -36 -18 -47 5 -3 7 0 4 9 -3 9 3 19 18 26
21 10 22 10 4 -4 -10 -8 -15 -20 -11 -26 4 -7 2 -15 -4 -19 -15 -10 -3 -121
13 -121 6 0 49 7 96 15 47 9 134 22 194 30 60 8 111 17 113 19 2 2 -39 7 -92
11 -67 5 -93 10 -88 18 3 7 3 9 -2 5 -4 -4 -17 -3 -28 3 -12 7 -17 7 -13 1 4
-6 -2 -8 -14 -5 -11 3 -23 9 -26 14 -3 5 3 6 13 3 15 -6 15 -4 -2 9 -17 13
-20 13 -23 1 -2 -8 -7 -14 -12 -14 -4 0 -6 10 -3 21 5 19 3 21 -20 17 -15 -3
-29 0 -32 6 -3 8 -7 7 -11 -1 -3 -7 -12 -9 -20 -6 -13 5 -13 7 -2 15 10 8 10
11 0 15 -6 2 -10 9 -6 14 7 11 5 11 -28 -9z"/>
<path d="M6288 8551 c9 -5 6 -11 -12 -19 -21 -9 -27 -8 -35 6 -9 15 -11 15
-12 -3 -1 -11 -1 -24 0 -28 1 -5 -4 -7 -11 -4 -7 2 -12 9 -11 15 2 6 -4 9 -13
5 -13 -5 -13 -7 -2 -14 10 -7 9 -9 -5 -9 -10 0 -16 -4 -13 -8 2 -4 -11 -6 -30
-4 -21 3 -34 0 -34 -7 0 -7 -31 -11 -87 -12 l-88 -2 55 -9 c194 -34 354 -57
358 -53 3 3 7 29 10 59 5 64 -9 90 -53 93 -18 2 -25 -1 -17 -6z"/>
<path d="M4360 8493 c0 -8 349 -6 380 1 8 2 -74 4 -182 5 -109 0 -198 -2 -198
-6z"/>
<path d="M4798 8493 c23 -2 61 -2 85 0 23 2 4 4 -43 4 -47 0 -66 -2 -42 -4z"/>
<path d="M5153 8493 c75 -2 199 -2 275 0 75 1 13 3 -138 3 -151 0 -213 -2
-137 -3z"/>
<path d="M5588 8493 c12 -2 30 -2 40 0 9 3 -1 5 -23 4 -22 0 -30 -2 -17 -4z"/>
<path d="M4170 8480 c0 -6 21 -8 58 -4 77 9 78 14 4 14 -35 0 -62 -4 -62 -10z"/>
<path d="M5738 8483 c12 -2 30 -2 40 0 9 3 -1 5 -23 4 -22 0 -30 -2 -17 -4z"/>
<path d="M4040 8470 c0 -11 21 -11 65 0 27 7 25 8 -17 9 -27 0 -48 -3 -48 -9z"/>
<path d="M5841 8476 c11 -10 89 -15 89 -6 0 5 -21 10 -47 10 -25 0 -44 -2 -42
-4z"/>
<path d="M631 5837 c-12 -35 -23 -72 -25 -83 -2 -10 -12 -45 -21 -77 -9 -32
-15 -60 -13 -61 8 -8 178 -15 178 -8 0 13 -90 292 -95 292 -2 0 -13 -28 -24
-63z"/>
<path d="M5313 5969 c-22 -8 -23 -13 -23 -143 l0 -134 29 -7 c32 -7 97 8 121
28 51 40 65 118 34 183 -26 55 -110 93 -161 73z"/>
<path d="M8504 5957 c-2 -7 -3 -71 -2 -143 l3 -129 53 2 c60 3 104 28 127 73
48 92 -26 210 -132 210 -27 0 -46 -5 -49 -13z"/>
<path d="M2456 5761 c-25 -79 -45 -145 -43 -147 7 -7 187 -13 187 -6 0 4 -22
73 -49 152 l-48 145 -47 -144z"/>
<path d="M3071 4595 c-56 -61 -54 -91 9 -122 64 -33 106 -31 125 7 37 72 1
159 -66 160 -19 0 -39 -13 -68 -45z"/>
<path d="M3290 4557 c0 -22 -18 -89 -35 -129 -5 -12 1 -18 27 -24 48 -12 47
-11 56 -14 4 -2 12 -4 17 -5 6 -2 12 -4 15 -5 9 -3 35 -10 75 -18 22 -5 45
-10 50 -12 22 -5 25 1 11 28 -15 30 -132 145 -183 181 l-33 22 0 -24z"/>
<path d="M5096 3041 c-4 -6 7 -26 23 -43 17 -18 31 -36 31 -40 0 -18 38 -6 63
20 27 28 27 29 7 47 -23 21 -114 33 -124 16z"/>
<path d="M7976 3059 c-33 -26 -34 -68 -3 -97 30 -28 38 -28 66 2 19 20 22 32
17 60 -4 20 -15 40 -26 46 -24 13 -23 13 -54 -11z"/>
<path d="M8254 2969 c-19 -21 -19 -21 11 -45 30 -24 91 -42 102 -30 4 4 -3 27
-15 51 -18 38 -26 45 -50 45 -17 0 -37 -9 -48 -21z"/>
<path d="M3912 3024 c-63 -55 -67 -74 -14 -74 58 0 82 22 82 76 0 24 -3 44 -8
44 -4 0 -31 -21 -60 -46z"/>
<path d="M3317 3113 c-11 -11 -8 -48 5 -61 13 -13 66 -16 92 -6 16 6 12 29
-12 57 -15 17 -72 24 -85 10z"/>
<path d="M2429 2979 c-25 -25 -21 -40 13 -57 35 -17 118 -27 118 -15 0 6 -14
29 -30 51 -34 48 -67 55 -101 21z"/>
<path d="M7348 2974 c-11 -23 -10 -29 11 -45 27 -22 101 -26 101 -6 0 6 -9 27
-20 45 -26 42 -74 46 -92 6z"/>
</g>
</svg>
