<?xml version="1.0" encoding="UTF-8"?>
<svg version="1.1" xmlns="http://www.w3.org/2000/svg" width="100" height="100">
<path d="M0 0 C3.375 -0.125 3.375 -0.125 7 0 C7.66 0.66 8.32 1.32 9 2 C9.99 1.67 10.98 1.34 12 1 C12.33 1.66 12.66 2.32 13 3 C13.33 2.34 13.66 1.68 14 1 C16.97 1 19.94 1 23 1 C23 3.97 23 6.94 23 10 C23.66 10 24.32 10 25 10 C26.03565785 11.30582947 27.03126968 12.64377755 28 14 C28.98165594 15.01801357 29.97591432 16.0246803 31 17 C30.505 15.02 30.505 15.02 30 13 C30.99 13.33 31.98 13.66 33 14 C33 15.65 33 17.3 33 19 C29.37 19 25.74 19 22 19 C22 19.66 22 20.32 22 21 C21.01 21 20.02 21 19 21 C19 21.66 19 22.32 19 23 C16.69 23.33 14.38 23.66 12 24 C12.33 26.31 12.66 28.62 13 31 C13.33 30.01 13.66 29.02 14 28 C15.65 28.33 17.3 28.66 19 29 C19.33 28.34 19.66 27.68 20 27 C20 28.32 20 29.64 20 31 C22.31 31 24.62 31 27 31 C27.33 29.68 27.66 28.36 28 27 C28 28.65 28 30.3 28 32 C25.625 33.0625 25.625 33.0625 23 34 C22.01 33.505 22.01 33.505 21 33 C21 33.99 21 34.98 21 36 C19.68 36 18.36 36 17 36 C17 35.01 17 34.02 17 33 C15.02 32.67 13.04 32.34 11 32 C11 32.99 11 33.98 11 35 C9.2984375 35.185625 9.2984375 35.185625 7.5625 35.375 C6.386875 35.58125 5.21125 35.7875 4 36 C3.67 36.66 3.34 37.32 3 38 C2.67 36.35 2.34 34.7 2 33 C1.01 33.66 0.02 34.32 -1 35 C-1.99 35 -2.98 35 -4 35 C-4.33 34.34 -4.66 33.68 -5 33 C-7.52733235 32.34444881 -7.52733235 32.34444881 -10 32 C-10 31.01 -10 30.02 -10 29 C-10.309375 28.01 -10.309375 28.01 -10.625 27 C-11 25 -11 25 -9 22 C-8.443125 22.474375 -7.88625 22.94875 -7.3125 23.4375 C-4.81653926 25.12395996 -2.9553763 25.58953107 0 26 C-0.66 25.01 -1.32 24.02 -2 23 C-1.34 22.67 -0.68 22.34 0 22 C0 21.34 0 20.68 0 20 C-3.63 19.67 -7.26 19.34 -11 19 C-11 18.34 -11 17.68 -11 17 C-10.01 16.67 -9.02 16.34 -8 16 C-8 15.34 -8 14.68 -8 14 C-6 14 -6 14 -4.375 15.5 C-3.694375 16.2425 -3.694375 16.2425 -3 17 C-3.33 16.01 -3.66 15.02 -4 14 C-4.03954234 11.66700175 -4.04401732 9.33291811 -4 7 C-4.66 7 -5.32 7 -6 7 C-6.33 8.98 -6.66 10.96 -7 13 C-8.875 12.6875 -8.875 12.6875 -11 12 C-11.66 11.01 -12.32 10.02 -13 9 C-12.01 9 -11.02 9 -10 9 C-9.67 6.36 -9.34 3.72 -9 1 C-6.69 1 -4.38 1 -2 1 C-2 2.98 -2 4.96 -2 7 C-1.34 6.67 -0.68 6.34 0 6 C0 4.02 0 2.04 0 0 Z " fill="#492112" transform="translate(50,50)"/>
<path d="M0 0 C3.4375 2 3.4375 2 6 4 C6.33 3.01 6.66 2.02 7 1 C8.625 0.3125 8.625 0.3125 11 0 C12.60875 -0.2165625 12.60875 -0.2165625 14.25 -0.4375 C20.7318729 0.31871851 25.82135848 5.12491823 30 10 C30 10.66 30 11.32 30 12 C31.32 12.33 32.64 12.66 34 13 C33.95875 12.21625 33.9175 11.4325 33.875 10.625 C34 8 34 8 36 6 C38.625 6.375 38.625 6.375 41 7 C40.49396008 9.16874252 40.00016187 10.99967627 39 13 C39.99 12.67 40.98 12.34 42 12 C42 12.66 42 13.32 42 14 C41.34 14.33 40.68 14.66 40 15 C42.475 15.495 42.475 15.495 45 16 C42.8614515 18.1385485 41.86724686 18.42655063 39 19 C39.5259375 20.175625 39.5259375 20.175625 40.0625 21.375 C40.371875 22.24125 40.68125 23.1075 41 24 C40.67 24.66 40.34 25.32 40 26 C40.66 26 41.32 26 42 26 C42 25.01 42 24.02 42 23 C44.97 23 47.94 23 51 23 C50.01 23.33 49.02 23.66 48 24 C48.66 24.33 49.32 24.66 50 25 C50 25.66 50 26.32 50 27 C49.34 27 48.68 27 48 27 C48 27.66 48 28.32 48 29 C48.99 28.67 49.98 28.34 51 28 C51 28.99 51 29.98 51 31 C48.36 31 45.72 31 43 31 C42.505 29.02 42.505 29.02 42 27 C41.34 27 40.68 27 40 27 C40.495 28.485 40.495 28.485 41 30 C40.34 30 39.68 30 39 30 C39 28.68 39 27.36 39 26 C38.34 26 37.68 26 37 26 C37 27.32 37 28.64 37 30 C35.68 30 34.36 30 33 30 C32.87625 29.030625 32.7525 28.06125 32.625 27.0625 C32.41875 26.051875 32.2125 25.04125 32 24 C31.34 23.67 30.68 23.34 30 23 C31.32 23 32.64 23 34 23 C34 24.98 34 26.96 34 29 C34.66 29 35.32 29 36 29 C35.979375 28.030625 35.95875 27.06125 35.9375 26.0625 C36 23 36 23 37 22 C36.01 21.67 35.02 21.34 34 21 C32.62665383 18.71108972 31.84749184 16.54247553 31 14 C30.38125 14.7734375 30.38125 14.7734375 29.75 15.5625 C29.1725 16.036875 28.595 16.51125 28 17 C25.8125 16.6875 25.8125 16.6875 24 16 C24.33 15.01 24.66 14.02 25 13 C25.99 13.33 26.98 13.66 28 14 C27.50243908 11.24358584 27.50243908 11.24358584 26 9 C25.76667969 9.63292969 25.53335938 10.26585937 25.29296875 10.91796875 C24 13 24 13 21.86328125 13.86328125 C16.5848015 14.79287569 12.23355001 15.3083875 7 14 C6.34 13.34 5.68 12.68 5 12 C4.34 13.65 3.68 15.3 3 17 C2.34 17 1.68 17 1 17 C1 16.34 1 15.68 1 15 C-0.175625 14.9071875 -0.175625 14.9071875 -1.375 14.8125 C-2.24125 14.544375 -3.1075 14.27625 -4 14 C-5.3125 11.4375 -5.3125 11.4375 -6 9 C-5.34 9 -4.68 9 -4 9 C-4.33 7.68 -4.66 6.36 -5 5 C-5.99 5.33 -6.98 5.66 -8 6 C-7.67 6.99 -7.34 7.98 -7 9 C-7.66 9 -8.32 9 -9 9 C-9 10.32 -9 11.64 -9 13 C-10.32 13 -11.64 13 -13 13 C-12.67 12.05125 -12.34 11.1025 -12 10.125 C-10.89840809 7.22937548 -10.89840809 7.22937548 -11 5 C-11.66 4.67 -12.32 4.34 -13 4 C-8.52185802 0.5048648 -5.69445692 -0.81349385 0 0 Z " fill="#4F2F20" transform="translate(44,28)"/>
<path d="M0 0 C0.66 0.33 1.32 0.66 2 1 C2.99 1 3.98 1 5 1 C5.33 1.66 5.66 2.32 6 3 C5.67 3.99 5.34 4.98 5 6 C4.34 6 3.68 6 3 6 C4.78907722 9.75151144 4.78907722 9.75151144 8.1875 11.8125 C8.785625 11.874375 9.38375 11.93625 10 12 C10 12.66 10 13.32 10 14 C10.66 14 11.32 14 12 14 C12.12375 13.195625 12.2475 12.39125 12.375 11.5625 C12.684375 10.2940625 12.684375 10.2940625 13 9 C13.66 8.67 14.32 8.34 15 8 C15.39445312 8.50015625 15.78890625 9.0003125 16.1953125 9.515625 C17.90797606 11.22581718 17.90797606 11.22581718 20.3046875 11.109375 C21.15289062 10.99078125 22.00109375 10.8721875 22.875 10.75 C23.75929687 10.62753906 24.64359375 10.50507812 25.5546875 10.37890625 C26.36164062 10.25386719 27.16859375 10.12882812 28 10 C28.99 9.896875 29.98 9.79375 31 9.6875 C33.19608357 9.16491797 33.19608357 9.16491797 34.3125 6.9375 C34.539375 6.298125 34.76625 5.65875 35 5 C36.5625 6.25 36.5625 6.25 38 8 C37.6875 10.1875 37.6875 10.1875 37 12 C36.505 11.01 36.505 11.01 36 10 C35.01 10.99 34.02 11.98 33 13 C36.93075644 12.42547254 36.93075644 12.42547254 40 10 C41.41377341 12.63904371 42.37240135 15.07120629 43 18 C44.32 18.33 45.64 18.66 47 19 C46.505 20.485 46.505 20.485 46 22 C45.65772583 23.33106622 45.32248257 24.66400079 45 26 C44.34 26 43.68 26 43 26 C43 24.02 43 22.04 43 20 C42.01 20 41.02 20 40 20 C40 19.34 40 18.68 40 18 C36.70924004 18.37904208 36.70924004 18.37904208 34 20 C32.33382885 20.04063832 30.66611905 20.042721 29 20 C28.505 21.485 28.505 21.485 28 23 C27.505 21.515 27.505 21.515 27 20 C26.34 20 25.68 20 25 20 C24.505 21.485 24.505 21.485 24 23 C23.34 22.01 22.68 21.02 22 20 C18.43230448 19.26393501 18.43230448 19.26393501 15 19 C15.33 20.98 15.66 22.96 16 25 C15.01 25.33 14.02 25.66 13 26 C13 24.02 13 22.04 13 20 C10.69 20 8.38 20 6 20 C6.020625 20.94875 6.04125 21.8975 6.0625 22.875 C6 26 6 26 5 28 C2.9375 28.625 2.9375 28.625 1 29 C1 28.34 1 27.68 1 27 C1.99 27 2.98 27 4 27 C3.67 26.401875 3.34 25.80375 3 25.1875 C2 23 2 23 2 20 C1.01 20 0.02 20 -1 20 C-1.33 20.66 -1.66 21.32 -2 22 C-3.32 22 -4.64 22 -6 22 C-6 21.34 -6 20.68 -6 20 C-6.99 20 -7.98 20 -9 20 C-9 20.66 -9 21.32 -9 22 C-9.66 22 -10.32 22 -11 22 C-11.625 19.6875 -11.625 19.6875 -12 17 C-9.78065836 13.67098753 -8.65316671 13.24976756 -5 12 C-6.32 11.67 -7.64 11.34 -9 11 C-8.6875 9.125 -8.6875 9.125 -8 7 C-7.01 6.34 -6.02 5.68 -5 5 C-4.34 5.66 -3.68 6.32 -3 7 C-3.33 7.99 -3.66 8.98 -4 10 C-2.68 10 -1.36 10 0 10 C0 8.68 0 7.36 0 6 C0.33 5.67 0.66 5.34 1 5 C0.67 5 0.34 5 0 5 C0 3.35 0 1.7 0 0 Z " fill="#49200B" transform="translate(50,50)"/>
<path d="M0 0 C0.99 0.33 1.98 0.66 3 1 C1.515 3.475 1.515 3.475 0 6 C0.66 6 1.32 6 2 6 C2 6.99 2 7.98 2 9 C3.8871875 9.061875 3.8871875 9.061875 5.8125 9.125 C6.52019531 9.14820313 7.22789063 9.17140625 7.95703125 9.1953125 C10.31359719 9.13254462 10.31359719 9.13254462 13 7 C13.33 7.99 13.66 8.98 14 10 C9.74897771 12.12551114 4.32682977 11.43325054 -0.0625 10 C-0.701875 9.67 -1.34125 9.34 -2 9 C-2.25 3.375 -2.25 3.375 0 0 Z " fill="#705B40" transform="translate(7,34)"/>
<path d="M0 0 C0.33 0.99 0.66 1.98 1 3 C2.32 2.67 3.64 2.34 5 2 C4.67 3.32 4.34 4.64 4 6 C-4.19256018 6.63019694 -4.19256018 6.63019694 -7.5625 4 C-8.2740625 3.01 -8.2740625 3.01 -9 2 C-6.36 2 -3.72 2 -1 2 C-0.67 1.34 -0.34 0.68 0 0 Z " fill="#431B0B" transform="translate(90,80)"/>
<path d="M0 0 C0 0.33 0 0.66 0 1 C-2.64 1.66 -5.28 2.32 -8 3 C-7.67 4.98 -7.34 6.96 -7 9 C-7.66 9 -8.32 9 -9 9 C-9 10.32 -9 11.64 -9 13 C-10.32 13 -11.64 13 -13 13 C-12.67 12.05125 -12.34 11.1025 -12 10.125 C-10.89840809 7.22937548 -10.89840809 7.22937548 -11 5 C-11.66 4.67 -12.32 4.34 -13 4 C-8.48649253 0.47726246 -5.71658336 -0.45732667 0 0 Z " fill="#8D754F" transform="translate(44,28)"/>
<path d="M0 0 C4.9399341 -0.29058436 8.09825673 -0.21320034 12 3 C12.9375 4.875 12.9375 4.875 13 7 C12.0625 9.75 12.0625 9.75 11 12 C9.68 11.01 8.36 10.02 7 9 C8 7 8 7 9 6 C8.67 5.01 8.34 4.02 8 3 C6.12612784 2.19787372 6.12612784 2.19787372 3.9375 1.8125 C3.20402344 1.65394531 2.47054687 1.49539062 1.71484375 1.33203125 C1.14894531 1.22246094 0.58304688 1.11289062 0 1 C0 0.67 0 0.34 0 0 Z " fill="#88774C" transform="translate(55,28)"/>
<path d="M0 0 C0.33 0.99 0.66 1.98 1 3 C0.34 4.32 -0.32 5.64 -1 7 C-4.96 7 -8.92 7 -13 7 C-12.34 5.68 -11.68 4.36 -11 3 C-10.01 3 -9.02 3 -8 3 C-8 2.34 -8 1.68 -8 1 C-7.34 1.33 -6.68 1.66 -6 2 C-6 3.32 -6 4.64 -6 6 C-3.37812506 4.95125002 -2.20628639 4.35068687 -0.75 1.875 C-0.5025 1.25625 -0.255 0.6375 0 0 Z " fill="#DEB76A" transform="translate(65,16)"/>
<path d="M0 0 C0.226875 0.639375 0.45375 1.27875 0.6875 1.9375 C1.85250896 4.27193661 1.85250896 4.27193661 4.625 4.75 C5.40875 4.8325 6.1925 4.915 7 5 C7.33 4.01 7.66 3.02 8 2 C8.99 2.66 9.98 3.32 11 4 C10.67 2.68 10.34 1.36 10 0 C10.99 0.33 11.98 0.66 13 1 C13 2.65 13 4.3 13 6 C11.02090602 6.02686553 9.04171029 6.04633375 7.0625 6.0625 C5.96035156 6.07410156 4.85820313 6.08570312 3.72265625 6.09765625 C1 6 1 6 0 5 C-0.04063832 3.33382885 -0.042721 1.66611905 0 0 Z " fill="#DEC090" transform="translate(70,63)"/>
<path d="M0 0 C2 2 2 2 2 7 C-1.3 7 -4.6 7 -8 7 C-8 6.34 -8 5.68 -8 5 C-7.01 4.67 -6.02 4.34 -5 4 C-5 3.34 -5 2.68 -5 2 C-3 2 -3 2 -1.375 3.5 C-0.92125 3.995 -0.4675 4.49 0 5 C-0.2784375 4.0409375 -0.2784375 4.0409375 -0.5625 3.0625 C-0.706875 2.381875 -0.85125 1.70125 -1 1 C-0.67 0.67 -0.34 0.34 0 0 Z " fill="#D0B47F" transform="translate(47,62)"/>
<path d="M0 0 C0.66 0 1.32 0 2 0 C2 1.32 2 2.64 2 4 C2.33 3.01 2.66 2.02 3 1 C3.66 1 4.32 1 5 1 C5.66 2.98 6.32 4.96 7 7 C3.7 6.34 0.4 5.68 -3 5 C-2.01 4.67 -1.02 4.34 0 4 C0 2.68 0 1.36 0 0 Z " fill="#4B210B" transform="translate(81,54)"/>
<path d="M0 0 C3.9429464 1.46596725 5.01834588 3.37308275 6.75 7.125 C7.17796875 8.03507812 7.6059375 8.94515625 8.046875 9.8828125 C8.51867187 10.93082031 8.51867187 10.93082031 9 12 C6 12 6 12 4 11 C4.33 9.68 4.66 8.36 5 7 C3.68 6.67 2.36 6.34 1 6 C1.66 6 2.32 6 3 6 C3 5.01 3 4.02 3 3 C2.34 3 1.68 3 1 3 C0.67 2.01 0.34 1.02 0 0 Z " fill="#8D7352" transform="translate(44,29)"/>
<path d="M0 0 C0.33 0 0.66 0 1 0 C1 1.65 1 3.3 1 5 C-0.11375 5.309375 -1.2275 5.61875 -2.375 5.9375 C-5.7945155 6.82326483 -5.7945155 6.82326483 -8 8 C-7.67 6.35 -7.34 4.7 -7 3 C-5.5459375 2.814375 -5.5459375 2.814375 -4.0625 2.625 C-2.5465625 2.315625 -2.5465625 2.315625 -1 2 C-0.67 1.34 -0.34 0.68 0 0 Z " fill="#9B8C62" transform="translate(56,77)"/>
<path d="M0 0 C0.66 0 1.32 0 2 0 C1.67 1.65 1.34 3.3 1 5 C-1.31 5.33 -3.62 5.66 -6 6 C-5.67 4.35 -5.34 2.7 -5 1 C-4.01 1.33 -3.02 1.66 -2 2 C-1.34 1.34 -0.68 0.68 0 0 Z " fill="#523718" transform="translate(67,36)"/>
<path d="M0 0 C0.66 0 1.32 0 2 0 C2.33 0.66 2.66 1.32 3 2 C4.32 1.67 5.64 1.34 7 1 C7 1.66 7 2.32 7 3 C7.66 3 8.32 3 9 3 C9 3.66 9 4.32 9 5 C6.1875 5.625 6.1875 5.625 3 6 C2.01 5.34 1.02 4.68 0 4 C0 2.68 0 1.36 0 0 Z " fill="#F4CA84" transform="translate(40,17)"/>
<path d="M0 0 C2.475 0.99 2.475 0.99 5 2 C5 2.99 5 3.98 5 5 C2.36 5 -0.28 5 -3 5 C-2.34 4.67 -1.68 4.34 -1 4 C-0.34786708 1.97536745 -0.34786708 1.97536745 0 0 Z " fill="#DFBD79" transform="translate(32,64)"/>
<path d="M0 0 C0.99 0 1.98 0 3 0 C3.625 1.8125 3.625 1.8125 4 4 C3.01 5.485 3.01 5.485 2 7 C1.01 6.01 0.02 5.02 -1 4 C-1.99 4.66 -2.98 5.32 -4 6 C-2.84826645 3.53199953 -1.95216435 1.95216435 0 0 Z " fill="#5B3C1C" transform="translate(30,33)"/>
<path d="M0 0 C0.66 0 1.32 0 2 0 C2.66 2.31 3.32 4.62 4 7 C1.69 7 -0.62 7 -3 7 C-2.67 6.01 -2.34 5.02 -2 4 C-2 4.66 -2 5.32 -2 6 C-1.34 6 -0.68 6 0 6 C0 4.02 0 2.04 0 0 Z " fill="#94704E" transform="translate(35,51)"/>
<path d="M0 0 C0.99 0 1.98 0 3 0 C3.33 1.65 3.66 3.3 4 5 C2.35 5.66 0.7 6.32 -1 7 C-1.04254356 5.00045254 -1.04080783 2.99958364 -1 1 C-0.67 0.67 -0.34 0.34 0 0 Z " fill="#866443" transform="translate(49,63)"/>
<path d="M0 0 C1.33333333 0 2.66666667 0 4 0 C4 1.98 4 3.96 4 6 C2.68 6.33 1.36 6.66 0 7 C-1.125 2.25 -1.125 2.25 0 0 Z " fill="#4B1F07" transform="translate(31,51)"/>
<path d="M0 0 C1.65 0 3.3 0 5 0 C4.01 0.33 3.02 0.66 2 1 C2.66 1.33 3.32 1.66 4 2 C4 2.66 4 3.32 4 4 C3.34 4 2.68 4 2 4 C2 4.66 2 5.32 2 6 C2.99 5.67 3.98 5.34 5 5 C5 5.66 5 6.32 5 7 C3.35 7 1.7 7 0 7 C0 4.69 0 2.38 0 0 Z " fill="#BDA475" transform="translate(90,51)"/>
<path d="M0 0 C0.33 0.99 0.66 1.98 1 3 C0.34 3.66 -0.32 4.32 -1 5 C-3.5625 4.75 -3.5625 4.75 -6 4 C-6.33 3.34 -6.66 2.68 -7 2 C-4.69 1.34 -2.38 0.68 0 0 Z " fill="#3F1308" transform="translate(47,37)"/>
<path d="M0 0 C1.98 0 3.96 0 6 0 C6.625 1.8125 6.625 1.8125 7 4 C6.01 5.485 6.01 5.485 5 7 C4.34 5.02 3.68 3.04 3 1 C2.01 1.495 2.01 1.495 1 2 C1.33 2.66 1.66 3.32 2 4 C1.01 4 0.02 4 -1 4 C-0.67 2.68 -0.34 1.36 0 0 Z " fill="#685441" transform="translate(15,34)"/>
<path d="M0 0 C0.66 0.33 1.32 0.66 2 1 C1.75 3.375 1.75 3.375 1 6 C-1.0625 7.3125 -1.0625 7.3125 -3 8 C-3 7.34 -3 6.68 -3 6 C-3.66 6 -4.32 6 -5 6 C-5 5.01 -5 4.02 -5 3 C-3.68 3.33 -2.36 3.66 -1 4 C-0.67 2.68 -0.34 1.36 0 0 Z " fill="#8A8863" transform="translate(92,36)"/>
<path d="M0 0 C0.79921875 0.00902344 1.5984375 0.01804687 2.421875 0.02734375 C3.02515625 0.03894531 3.6284375 0.05054687 4.25 0.0625 C3.63125 0.35125 3.0125 0.64 2.375 0.9375 C0.11674235 1.99970042 0.11674235 1.99970042 -1.75 4.0625 C-1.75 3.4025 -1.75 2.7425 -1.75 2.0625 C-2.53375 2.26875 -3.3175 2.475 -4.125 2.6875 C-4.99125 2.81125 -5.8575 2.935 -6.75 3.0625 C-7.41 2.4025 -8.07 1.7425 -8.75 1.0625 C-5.75519083 0.1901588 -3.11424089 -0.04579766 0 0 Z " fill="#542007" transform="translate(48.75,23.9375)"/>
<path d="M0 0 C4.75 0.75 4.75 0.75 7 3 C6.67 3.66 6.34 4.32 6 5 C3.83125748 4.49396008 2.00032373 4.00016187 0 3 C0 2.01 0 1.02 0 0 Z " fill="#49230A" transform="translate(17,78)"/>
<path d="M0 0 C2.31 0.33 4.62 0.66 7 1 C6.34 2.32 5.68 3.64 5 5 C3.35 4.67 1.7 4.34 0 4 C0 2.68 0 1.36 0 0 Z " fill="#3F120A" transform="translate(52,37)"/>
<path d="M0 0 C2.625 0.375 2.625 0.375 5 1 C5 1.99 5 2.98 5 4 C4.01 4 3.02 4 2 4 C2 3.34 2 2.68 2 2 C-0.51083114 3.25541557 -0.87125446 4.50063488 -2 7 C-2.125 4.625 -2.125 4.625 -2 2 C-1.34 1.34 -0.68 0.68 0 0 Z " fill="#998A75" transform="translate(80,34)"/>
<path d="M0 0 C0 1.32 0 2.64 0 4 C-1.98 4.33 -3.96 4.66 -6 5 C-5.625 3.0625 -5.625 3.0625 -5 1 C-3 0 -3 0 0 0 Z " fill="#401307" transform="translate(58,29)"/>
<path d="M0 0 C3.4375 0.8125 3.4375 0.8125 7 2 C7.33 2.99 7.66 3.98 8 5 C5.83125748 4.49396008 4.00032373 4.00016187 2 3 C2.33 3.99 2.66 4.98 3 6 C2.34 6 1.68 6 1 6 C0.67 4.02 0.34 2.04 0 0 Z " fill="#4B2B16" transform="translate(50,34)"/>
<path d="M0 0 C0.78375 0.04125 1.5675 0.0825 2.375 0.125 C1.6875 2.0625 1.6875 2.0625 0.375 4.125 C-2.25 4.875 -2.25 4.875 -4.625 5.125 C-4.625 1.22254579 -3.95783286 0.18846823 0 0 Z " fill="#7C6F40" transform="translate(15.625,76.875)"/>
<path d="M0 0 C0.66 0 1.32 0 2 0 C2.66 1.98 3.32 3.96 4 6 C3.34 6.66 2.68 7.32 2 8 C1.34 7.67 0.68 7.34 0 7 C0 4.69 0 2.38 0 0 Z " fill="#CEAF74" transform="translate(6,51)"/>
<path d="M0 0 C3.3 0.33 6.6 0.66 10 1 C8.68 1.33 7.36 1.66 6 2 C5.67 3.32 5.34 4.64 5 6 C4.731875 5.195625 4.46375 4.39125 4.1875 3.5625 C3.795625 2.716875 3.40375 1.87125 3 1 C2.01 0.67 1.02 0.34 0 0 Z " fill="#451C05" transform="translate(35,49)"/>
<path d="M0 0 C1.33332095 2.6666419 0.67102033 4.16680303 0 7 C-0.99 7 -1.98 7 -3 7 C-3.1875 4.625 -3.1875 4.625 -3 2 C-2.01 1.34 -1.02 0.68 0 0 Z " fill="#4E380E" transform="translate(89,74)"/>
<path d="M0 0 C0.99 0.33 1.98 0.66 3 1 C3.33 1.99 3.66 2.98 4 4 C4.66 4.66 5.32 5.32 6 6 C2.25 7.125 2.25 7.125 0 6 C0 4.02 0 2.04 0 0 Z " fill="#492012" transform="translate(12,62)"/>
<path d="M0 0 C0.33 0.66 0.66 1.32 1 2 C3.52733235 2.65555119 3.52733235 2.65555119 6 3 C5.67 3.66 5.34 4.32 5 5 C3.35 4.67 1.7 4.34 0 4 C0 2.68 0 1.36 0 0 Z " fill="#C5AE67" transform="translate(15,68)"/>
<path d="M0 0 C0.66 0 1.32 0 2 0 C2.66 1.98 3.32 3.96 4 6 C3.34 6.66 2.68 7.32 2 8 C1.34 7.67 0.68 7.34 0 7 C0 4.69 0 2.38 0 0 Z " fill="#94754F" transform="translate(84,63)"/>
<path d="M0 0 C0.66 0 1.32 0 2 0 C2.33 0.66 2.66 1.32 3 2 C3.66 1.34 4.32 0.68 5 0 C5 2.31 5 4.62 5 7 C4.34 7 3.68 7 3 7 C2.01 4.69 1.02 2.38 0 0 Z " fill="#C5A981" transform="translate(60,51)"/>
<path d="M0 0 C2 3 2 3 3 5 C1.35 5.33 -0.3 5.66 -2 6 C-1.125 1.125 -1.125 1.125 0 0 Z " fill="#4A2614" transform="translate(82,75)"/>
<path d="M0 0 C2.31 0.33 4.62 0.66 7 1 C6.67 1.99 6.34 2.98 6 4 C4.125 3.6875 4.125 3.6875 2 3 C1.34 2.01 0.68 1.02 0 0 Z " fill="#644032" transform="translate(37,59)"/>
<path d="M0 0 C0.66 0 1.32 0 2 0 C2 0.99 2 1.98 2 3 C2.66 3 3.32 3 4 3 C3.34 4.32 2.68 5.64 2 7 C1.34 7 0.68 7 0 7 C0 4.69 0 2.38 0 0 Z " fill="#C8AB7F" transform="translate(53,51)"/>
</svg>
